# xmcd
#
# Track frame offsets:
#	150
#	9719
#	20385
#	30814
#	46558
#	57066
#	69680
#	78186
#	90667
#	104230
#	119035
#	129370
#	139762
#	149910
#
# Disc length: 2172 seconds
#
# Revision: 0
# Processed by: cddbd v1.5.2PL0 Copyright (c) Steve Scherf et al.
# Submitted via: EasyCDDAExtractor 16.0.1.1
#
DISCID=bd087a0e
DTITLE=Philomena Begley and Mick Flavin - In Harmony
DYEAR=1991
DGENRE=Country
TTITLE0=No Love Left
TTITLE1=Just Between You And Me
TTITLE2=I'm Wasting Your Time Your Wasting Mine
TTITLE3=Till A Tear Becomes a Rose
TTITLE4=Always  Always
TTITLE5=We're Strangers again
TTITLE6=We'll Get Ahead Someday
TTITLE7=All You've Got To Do Is Dream
TTITLE8=Daisy Chain
TTITLE9=Don't Believe Me I'm Lying
TTITLE10=You Can't Break The Chains Of Love
TTITLE11=Let's Pretend We're Not Married Tonight
TTITLE12=How Can I Help You Forgive Me
TTITLE13=Somewhere Between
EXTD=
EXTT0=
EXTT1=
EXTT2=
EXTT3=
EXTT4=
EXTT5=
EXTT6=
EXTT7=
EXTT8=
EXTT9=
EXTT10=
EXTT11=
EXTT12=
EXTT13=
PLAYORDER=
